<svg xmlns="http://www.w3.org/2000/svg" viewBox="0 0 500 500"><g id="freepik--background-complete--inject-294"><rect y="382.4" width="500" height="0.25" style="fill:#ebebeb"></rect><rect x="429.83" y="398.49" width="20.07" height="0.25" style="fill:#ebebeb"></rect><rect x="357.48" y="394.99" width="32.02" height="0.25" style="fill:#ebebeb"></rect><rect x="274.19" y="389.21" width="36.98" height="0.25" style="fill:#ebebeb"></rect><rect x="75.46" y="396.57" width="43.19" height="0.25" style="fill:#ebebeb"></rect><rect x="60.22" y="396.57" width="6.33" height="0.25" style="fill:#ebebeb"></rect><rect x="131.75" y="389.08" width="37.48" height="0.25" style="fill:#ebebeb"></rect><path d="M237,337.8H43.91a5.71,5.71,0,0,1-5.7-5.71V60.66A5.71,5.71,0,0,1,43.91,55H237a5.71,5.71,0,0,1,5.71,5.71V332.09A5.71,5.71,0,0,1,237,337.8ZM43.91,55.2a5.46,5.46,0,0,0-5.45,5.46V332.09a5.46,5.46,0,0,0,5.45,5.46H237a5.47,5.47,0,0,0,5.46-5.46V60.66A5.47,5.47,0,0,0,237,55.2Z" style="fill:#ebebeb"></path><path d="M453.31,337.8H260.21a5.72,5.72,0,0,1-5.71-5.71V60.66A5.72,5.72,0,0,1,260.21,55h193.1A5.71,5.71,0,0,1,459,60.66V332.09A5.71,5.71,0,0,1,453.31,337.8ZM260.21,55.2a5.47,5.47,0,0,0-5.46,5.46V332.09a5.47,5.47,0,0,0,5.46,5.46h193.1a5.47,5.47,0,0,0,5.46-5.46V60.66a5.47,5.47,0,0,0-5.46-5.46Z" style="fill:#ebebeb"></path><circle cx="123.03" cy="254.63" r="27.46" transform="translate(-153.05 315.86) rotate(-76.72)" style="fill:#fafafa"></circle><path d="M138,312.51c66,4,69.36,18.16,142.67-7.41,50.67-17.66,89.13,19.24,108.47,77.3H38.21C38.46,355,76.09,308.75,138,312.51Z" style="fill:#ebebeb"></path><path d="M388.56,342.08c-51.49,5.11-62.45,7.11-102-4.3s-70.67,11.11-86,44.62H478.78C467,365.62,431.67,337.8,388.56,342.08Z" style="fill:#f5f5f5"></path><path d="M128.53,75.82c-6.82,4-20.34,1.57-42.51-1.88-13-2-19.46,2.12-28.48,5.87-3.61,1.5-19.46,6.72,1.24,6.72l15.11,0h100c31.91,0,2.24-5.7-2.88-7.89l-.27-.11C155.53,71.82,135.36,71.82,128.53,75.82Z" style="fill:#f5f5f5"></path><path d="M285.89,173.11h96.44c8.45,0-.37-5.55-11.95-6.67s-22.21-9.29-37.36-11.55-15.56,10-35.47,9.89C281.41,164.69,269.44,173.11,285.89,173.11Z" style="fill:#f5f5f5"></path><path d="M210.53,170.62c-6.84-.65-13.1-5.48-22-6.82-4.43-.66-7,1-9.62,2.57-3.28,2-7.29,3-12.33,2.88a64.65,64.65,0,0,1-19.4-3.56c-5.65-1.93-11.53-4.22-16-3.4-8.29,1.52-8.53,7-15.39,7.78s-8.11,4.49-2.43,4.49H217.59C222.57,174.56,217.37,171.28,210.53,170.62Z" style="fill:#f5f5f5"></path><path d="M355.25,220.21c-3.75,2.2-11.19.87-23.37-1-7.16-1.12-10.7,1.17-15.66,3.23-2,.82-10.69,3.69.69,3.69l8.3,0h55c17.54,0,1.23-3.14-1.59-4.34l-.14-.06C370.09,218,359,218,355.25,220.21Z" style="fill:#f5f5f5"></path><path d="M62.79,250h53c4.64,0-.2-3.05-6.57-3.66S97,241.23,88.7,240s-8.55,5.5-19.49,5.44C60.33,245.37,53.75,250,62.79,250Z" style="fill:#f5f5f5"></path><path d="M416.71,264.64c-3.76-.36-7.21-3-12.12-3.75a7.1,7.1,0,0,0-5.29,1.41,12,12,0,0,1-6.77,1.58,35.06,35.06,0,0,1-10.67-2c-3.1-1.05-6.34-2.32-8.8-1.86-4.56.83-4.69,3.86-8.46,4.27s-4.46,2.47-1.34,2.47h57.33C423.32,266.8,420.46,265,416.71,264.64Z" style="fill:#f5f5f5"></path></g><g id="freepik--Shadow--inject-294"><ellipse id="freepik--path--inject-294" cx="250" cy="416.24" rx="193.89" ry="11.32" style="fill:#f5f5f5"></ellipse></g><g id="freepik--Character--inject-294"><path d="M240.87,172.53h0a1,1,0,0,0,1.32-.52l27-62.54a1,1,0,0,0-.52-1.31h0a1,1,0,0,0-1.32.52l-27,62.53A1,1,0,0,0,240.87,172.53Z" style="fill:#263238"></path><path d="M260.16,115.1a34.9,34.9,0,0,0,6.92,1.65l3-6.77a35,35,0,0,1-6.79-1.7Z" style="fill:#407BFF"></path><path d="M253.65,112.23a47.67,47.67,0,0,0,6.51,2.87l3.11-6.82a47.51,47.51,0,0,1-6.39-2.88Q255.28,108.78,253.65,112.23Z" style="fill:#fff"></path><path d="M247.41,108.54c2,1.32,4.11,2.57,6.24,3.69q1.62-3.45,3.23-6.83c-2.08-1.12-4.12-2.36-6.12-3.68Q249.1,105.1,247.41,108.54Z" style="fill:#407BFF"></path><path d="M241.29,104.41c2,1.4,4.06,2.8,6.12,4.13q1.68-3.45,3.35-6.82c-2-1.32-4-2.71-6-4.1C243.61,99.86,242.45,102.12,241.29,104.41Z" style="fill:#fff"></path><path d="M235.1,100.24c2.09,1.35,4.14,2.76,6.19,4.17,1.16-2.29,2.32-4.55,3.46-6.79-2-1.4-4-2.8-6.08-4.15Z" style="fill:#407BFF"></path><path d="M228.63,96.4c2.22,1.18,4.37,2.48,6.47,3.84l3.57-6.77c-2.06-1.35-4.16-2.64-6.34-3.82Z" style="fill:#fff"></path><path d="M221.63,93.29a53.72,53.72,0,0,1,7,3.11l3.7-6.75a53.26,53.26,0,0,0-6.86-3.12Q223.58,89.88,221.63,93.29Z" style="fill:#407BFF"></path><path d="M213.84,91.28a43.15,43.15,0,0,1,7.79,2q2-3.42,3.84-6.76a43.11,43.11,0,0,0-7.63-2Z" style="fill:#fff"></path><path d="M257,122.13a34.73,34.73,0,0,0,7.07,1.6l3.06-7a34.9,34.9,0,0,1-6.92-1.65Z" style="fill:#fff"></path><path d="M250.31,119.28a47.92,47.92,0,0,0,6.64,2.85l3.21-7a47.67,47.67,0,0,1-6.51-2.87C252.55,114.55,251.43,116.9,250.31,119.28Z" style="fill:#407BFF"></path><path d="M244,115.57c2.09,1.33,4.2,2.59,6.36,3.71,1.12-2.38,2.24-4.73,3.34-7-2.13-1.12-4.2-2.37-6.24-3.69Z" style="fill:#fff"></path><path d="M237.72,111.42c2.07,1.41,4.14,2.82,6.23,4.15l3.46-7c-2.06-1.33-4.09-2.73-6.12-4.13Z" style="fill:#407BFF"></path><path d="M231.41,107.22c2.13,1.36,4.22,2.78,6.31,4.2l3.57-7c-2-1.41-4.1-2.82-6.19-4.17C233.88,102.54,232.65,104.86,231.41,107.22Z" style="fill:#fff"></path><path d="M224.81,103.36c2.27,1.18,4.45,2.49,6.6,3.86,1.24-2.36,2.47-4.68,3.69-7-2.1-1.36-4.25-2.66-6.47-3.84Z" style="fill:#407BFF"></path><path d="M217.67,100.26a53.62,53.62,0,0,1,7.14,3.1l3.82-7a53.72,53.72,0,0,0-7-3.11Z" style="fill:#fff"></path><path d="M209.7,98.3a43.21,43.21,0,0,1,8,2l4-7a43.15,43.15,0,0,0-7.79-2C212.47,93.59,211.1,95.93,209.7,98.3Z" style="fill:#407BFF"></path><path d="M253.65,129.38a35.71,35.71,0,0,0,7.21,1.56c1.06-2.43,2.12-4.83,3.16-7.21a34.73,34.73,0,0,1-7.07-1.6Z" style="fill:#407BFF"></path><path d="M246.87,126.54a46.08,46.08,0,0,0,6.78,2.84l3.3-7.25a47.92,47.92,0,0,1-6.64-2.85Z" style="fill:#fff"></path><path d="M240.39,122.83c2.12,1.33,4.27,2.6,6.48,3.71l3.44-7.26c-2.16-1.12-4.27-2.38-6.36-3.71Z" style="fill:#407BFF"></path><path d="M234,118.65c2.12,1.42,4.22,2.84,6.36,4.18l3.56-7.26c-2.09-1.33-4.16-2.74-6.23-4.15Q235.89,115,234,118.65Z" style="fill:#fff"></path><path d="M227.6,114.42c2.17,1.37,4.3,2.8,6.43,4.23q1.86-3.66,3.69-7.23c-2.09-1.42-4.18-2.84-6.31-4.2Q229.52,110.78,227.6,114.42Z" style="fill:#407BFF"></path><path d="M220.87,110.56c2.31,1.18,4.54,2.49,6.73,3.86q1.92-3.65,3.81-7.2c-2.15-1.37-4.33-2.68-6.6-3.86C223.51,105.74,222.19,108.13,220.87,110.56Z" style="fill:#fff"></path><path d="M213.57,107.46a53.87,53.87,0,0,1,7.3,3.1c1.32-2.43,2.64-4.82,3.94-7.2a53.62,53.62,0,0,0-7.14-3.1Z" style="fill:#407BFF"></path><path d="M205.43,105.55a44,44,0,0,1,8.14,1.91l4.1-7.2a43.21,43.21,0,0,0-8-2Z" style="fill:#fff"></path><path d="M250.23,136.87a35.16,35.16,0,0,0,7.37,1.49q1.63-3.75,3.26-7.42a35.71,35.71,0,0,1-7.21-1.56Z" style="fill:#fff"></path><path d="M243.32,134.05a47,47,0,0,0,6.91,2.82l3.42-7.49a46.08,46.08,0,0,1-6.78-2.84C245.7,129,244.51,131.52,243.32,134.05Z" style="fill:#407BFF"></path><path d="M236.71,130.32c2.16,1.35,4.36,2.61,6.61,3.73,1.19-2.53,2.38-5,3.55-7.51-2.21-1.11-4.36-2.37-6.48-3.71C239.17,125.3,238,127.8,236.71,130.32Z" style="fill:#fff"></path><path d="M230.22,126.12c2.16,1.43,4.31,2.86,6.49,4.2,1.24-2.52,2.46-5,3.68-7.49-2.14-1.34-4.25-2.76-6.36-4.18Q232.14,122.34,230.22,126.12Z" style="fill:#407BFF"></path><path d="M223.66,121.87c2.22,1.37,4.4,2.81,6.56,4.25q1.92-3.78,3.81-7.47c-2.13-1.43-4.26-2.86-6.43-4.23Z" style="fill:#fff"></path><path d="M216.79,118c2.36,1.18,4.64,2.49,6.87,3.88l3.94-7.45c-2.19-1.37-4.42-2.68-6.73-3.86C219.52,113,218.16,115.48,216.79,118Z" style="fill:#407BFF"></path><path d="M209.34,114.9a54,54,0,0,1,7.45,3.09c1.37-2.51,2.73-5,4.08-7.43a53.87,53.87,0,0,0-7.3-3.1C212.18,109.91,210.77,112.4,209.34,114.9Z" style="fill:#fff"></path><path d="M201,113.05a44.22,44.22,0,0,1,8.33,1.85c1.43-2.5,2.84-5,4.23-7.44a44,44,0,0,0-8.14-1.91Z" style="fill:#407BFF"></path><path d="M245.28,135.36a47.17,47.17,0,0,0,4.85,1.84,35.49,35.49,0,0,0,7.43,1.5.34.34,0,0,0,.34-.2l12.43-28.39a.31.31,0,0,0,0-.28.37.37,0,0,0-.24-.16,34.07,34.07,0,0,1-6.72-1.68,47.39,47.39,0,0,1-6.34-2.86c-1.86-1-3.85-2.2-6.09-3.66-2-1.33-4-2.73-6-4.1s-4-2.8-6.07-4.15c-2.32-1.52-4.41-2.77-6.37-3.83a53.49,53.49,0,0,0-6.9-3.15h0a43.34,43.34,0,0,0-7.69-2.07.37.37,0,0,0-.37.16L200.66,112.9a.33.33,0,0,0,0,.32.4.4,0,0,0,.28.18,43.48,43.48,0,0,1,8.26,1.83,53.37,53.37,0,0,1,7.41,3.06c2.11,1.06,4.35,2.32,6.84,3.87,2.22,1.37,4.43,2.83,6.56,4.24s4.32,2.87,6.5,4.22c2.45,1.51,4.62,2.73,6.65,3.74C243.88,134.71,244.58,135.05,245.28,135.36ZM257.39,138a35.58,35.58,0,0,1-7-1.47,45.92,45.92,0,0,1-6.86-2.8c-2-1-4.16-2.21-6.58-3.71-2.17-1.34-4.35-2.79-6.46-4.19s-4.35-2.89-6.57-4.26c-2.51-1.56-4.76-2.83-6.9-3.9a54.09,54.09,0,0,0-7.49-3.1,44.47,44.47,0,0,0-7.88-1.81L218,84.84a41,41,0,0,1,7.31,2h0a52,52,0,0,1,6.81,3.1c2,1,4,2.29,6.33,3.81,2,1.34,4.1,2.76,6.07,4.14s4,2.78,6,4.11c2.26,1.48,4.28,2.68,6.15,3.69a48.35,48.35,0,0,0,6.45,2.9,34.56,34.56,0,0,0,6.43,1.65Z" style="fill:#407BFF"></path><polygon points="178 410.72 184.84 410.72 184.83 394.86 177.98 394.86 178 410.72" style="fill:#b55b52"></polygon><polygon points="110.27 380.06 116.14 383.58 126.65 371.4 120.78 367.87 110.27 380.06" style="fill:#b55b52"></polygon><path d="M118.3,385.35a2,2,0,0,0,1.3.37.94.94,0,0,0,.7-.58.55.55,0,0,0,0-.54c-.46-.73-3-.68-3.3-.67a.15.15,0,0,0-.14.11.17.17,0,0,0,0,.17A8.13,8.13,0,0,0,118.3,385.35Zm1.55-.72a.45.45,0,0,1,.16.14.21.21,0,0,1,0,.22.64.64,0,0,1-.47.41c-.47.08-1.26-.34-2.14-1.14A6.19,6.19,0,0,1,119.85,384.63Z" style="fill:#407BFF"></path><path d="M116.91,384.24l.08,0c.79,0,2.68-.59,2.92-1.34a.55.55,0,0,0-.24-.63.85.85,0,0,0-.69-.18c-1,.17-2.08,1.82-2.12,1.89a.17.17,0,0,0,0,.17Zm2.51-1.73.06,0c.17.13.14.22.13.26-.14.45-1.43,1-2.29,1.1.34-.47,1.08-1.37,1.72-1.47A.55.55,0,0,1,119.42,382.51Z" style="fill:#407BFF"></path><path d="M116.93,383.13l-6.59-4a.59.59,0,0,0-.73.11l-4.06,4.66a1.06,1.06,0,0,0,.28,1.59c2.32,1.34,3.52,1.88,6.42,3.62,1.78,1.07,7.18,5.76,9.64,7.24s4.15-.82,3.26-1.66a31.13,31.13,0,0,1-7.47-10.65A1.77,1.77,0,0,0,116.93,383.13Z" style="fill:#263238"></path><path d="M187.66,411.13a2.5,2.5,0,0,0,1.65-.43.85.85,0,0,0,.27-.78.55.55,0,0,0-.29-.44c-.85-.46-3.54.94-3.85,1.1a.14.14,0,0,0-.07.16.16.16,0,0,0,.13.14A11.45,11.45,0,0,0,187.66,411.13Zm1.18-1.42a.68.68,0,0,1,.31.06.21.21,0,0,1,.11.17.57.57,0,0,1-.18.52c-.4.38-1.53.44-3.05.19A8.63,8.63,0,0,1,188.84,409.71Z" style="fill:#407BFF"></path><path d="M185.53,410.88h.07c.81-.37,2.38-1.85,2.22-2.63,0-.18-.18-.41-.62-.45a1.13,1.13,0,0,0-.89.28c-.84.71-.94,2.56-.95,2.64a.17.17,0,0,0,.08.14Zm1.55-2.77h.1c.29,0,.32.15.32.18.1.47-1,1.63-1.78,2.14a3.61,3.61,0,0,1,.81-2.11A.81.81,0,0,1,187.08,408.11Z" style="fill:#407BFF"></path><path d="M184.76,409.93h-7.48a.56.56,0,0,0-.56.47l-1.08,6.08a1,1,0,0,0,1,1.22c2.69,0,6.58-.2,10-.2,4,0,4.58.21,9.23.21,2.81,0,3.47-2.84,2.28-3.1-5.41-1.17-7-1.29-11.72-4.15A3.33,3.33,0,0,0,184.76,409.93Z" style="fill:#263238"></path><path d="M181.32,158.75c.46,5.13.32,11.38-3.49,14.2,0,0,1.48,5.35,10.69,6.7,8.41,1.23,4.72-4.44,4.72-4.44-5.4-2.14-4.41-9-3.05-12.71Z" style="fill:#b55b52"></path><polygon points="184.82 394.87 184.84 403.04 177.98 403.04 177.97 394.87 184.82 394.87" style="opacity:0.2"></polygon><polygon points="120.78 367.88 126.65 371.4 121.23 377.68 115.36 374.15 120.78 367.88" style="opacity:0.2"></polygon><path d="M164.16,175.46l5.14,8.74s-18.66,14.15-19.57,17.59c-1.24,4.69-5.42,13.27-6.8,19.62-1.07.37-4.05.42-4.93-.12.43-8.37,1.45-22.44,3.9-26C147.49,187.06,164.16,175.46,164.16,175.46Z" style="fill:#b55b52"></path><path d="M142.93,221.41l4,5.13-7.72,1.39s-3.36-4.61-.35-8Z" style="fill:#b55b52"></path><polygon points="147.2 232.89 140.15 233.79 139.21 227.93 146.93 226.54 147.2 232.89" style="fill:#b55b52"></polygon><path d="M169,172.41c-11,0-20.4,12.15-20.4,12.15l7.66,13.5A117.31,117.31,0,0,0,169.89,188C176.45,182.18,176,172.44,169,172.41Z" style="fill:#407BFF"></path><path d="M169.24,181.4c-3.91,1.76-7.8,7.89-8.48,13.67,1.81-1.27,4-2.87,6.2-4.65C169.67,185.13,171.83,180.24,169.24,181.4Z" style="opacity:0.2"></path><path d="M192.74,177.22c.32-2.4.87-3.48.33-4.46s-13.39-3.95-15.79-3.27c-.81.23-1.76,3.62-1,5.31C177.32,177.25,192.74,177.22,192.74,177.22Z" style="fill:#407BFF"></path><path d="M192.74,177.22c.32-2.4.87-3.48.33-4.46s-13.39-3.95-15.79-3.27c-.81.23-1.76,3.62-1,5.31C177.32,177.25,192.74,177.22,192.74,177.22Z" style="opacity:0.2"></path><path d="M200.5,177.56s6.45,21.61-4.09,59.13l-36.36-4.39c.16-5.16,4.85-28.16,3.06-52.79a6.66,6.66,0,0,1,6.66-7.14c1.58,0,3.29,0,5,.17a135.15,135.15,0,0,1,15.46,1.87A70.73,70.73,0,0,1,200.5,177.56Z" style="fill:#407BFF"></path><path d="M196.48,189.44l.11-9.78s23.94-3.3,26.54-5c5.12-4.24,12.46-7.31,17.1-12.25,1.17.12,3,1.75,3.61,2.58-3.73,7.2-9.35,14-16.72,17.6C218,187,196.48,189.44,196.48,189.44Z" style="fill:#b55b52"></path><path d="M193.41,194.65c4.87,4.24,23.81-5,23.81-5l-6.43-15.09a44.26,44.26,0,0,0-15.89,1C186.3,177.84,188.06,190,193.41,194.65Z" style="fill:#407BFF"></path><path d="M239.33,163.3l5.49-4.85,1.89,8.05a8,8,0,0,1-5,.32Z" style="fill:#b55b52"></path><polygon points="249.05 159.22 248.81 165.32 246.71 166.5 244.82 158.45 249.05 159.22" style="fill:#b55b52"></polygon><path d="M197.37,153.81c0,.56.25,1,.61,1.06s.67-.39.69-.94-.24-1-.6-1.06S197.4,153.26,197.37,153.81Z" style="fill:#263238"></path><path d="M196.89,153.79a21.14,21.14,0,0,0,2.41,5,3.1,3.1,0,0,1-2.64.27Z" style="fill:#a02724"></path><path d="M198.27,152l.14,0a.31.31,0,0,0,.14-.43,3.39,3.39,0,0,0-2.35-1.89.3.3,0,0,0-.36.27.34.34,0,0,0,.29.37h0a2.7,2.7,0,0,1,1.84,1.52A.34.34,0,0,0,198.27,152Z" style="fill:#263238"></path><path d="M179,150.64c.11,6.84-.16,10.83,3.09,14.62a8.77,8.77,0,0,0,15.25-3.33c1.72-6,1.24-16.16-5.24-19.44A8.87,8.87,0,0,0,179,150.64Z" style="fill:#b55b52"></path><path d="M180.86,164.44s-10-13.4-5.11-16.33c-2.29-2.78-.29-7.79,3.59-9s20.54,5.86,16.61.49-7.57-2.2-7.57-2.2,2-6.2,9.71.24.36,12.46-5.57,13C193.35,155.71,190.54,167.37,180.86,164.44Z" style="fill:#263238"></path><path d="M189,155.78a6.06,6.06,0,0,0,2.35,3.78c1.64,1.2,3.08-.1,3.14-2,.06-1.73-.72-4.43-2.62-4.86S188.65,153.92,189,155.78Z" style="fill:#b55b52"></path><path d="M183.51,235.13s-7.1,51.06-11.84,70.38c-5.2,21.16-46.95,72.42-46.95,72.42L114,371.47s33.58-48.49,36.77-69.58c3.46-22.89,9.31-69.59,9.31-69.59Z" style="fill:#263238"></path><path d="M180.09,258.24a11.94,11.94,0,0,0-2-6.55,1.25,1.25,0,0,0-.88-.53,1.61,1.61,0,0,0-1.15.55c-2.69,2.54-2.74,6.89-3.29,10.29a121.26,121.26,0,0,0-.81,31.27,48.72,48.72,0,0,0,.8,5.35c.07.35.15.69.24,1,2.35-11.23,5-27.65,7.08-41.11A2.13,2.13,0,0,0,180.09,258.24Z" style="opacity:0.2"></path><path d="M196.41,236.69s1.68,49.85.42,70.7c-1.31,21.68-9.51,94.07-9.51,94.07h-11.6s.2-72.47.22-93.85c0-23.31-3.43-73.8-3.43-73.8Z" style="fill:#263238"></path><path d="M174.8,397.9c-.06,0,.16,3.8.16,3.8h13.37l.38-4.26Z" style="fill:#407BFF"></path><path d="M115.89,367.59c-.43.5-2.57,3.77-2.57,3.77l11.82,7.1,3-2.91Z" style="fill:#407BFF"></path></g><g id="freepik--drone-1--inject-294"><polygon points="82.97 108.02 76.95 109.93 85.72 109.4 82.97 108.02" style="fill:#407BFF"></polygon><polygon points="95.03 108.84 85.72 109.4 88.52 110.8 95.03 108.84" style="fill:#407BFF"></polygon><polygon points="113.77 103.95 106.41 106.16 117.08 105.44 113.77 103.95" style="fill:#407BFF"></polygon><polygon points="128.48 104.68 117.08 105.44 120.44 106.96 128.48 104.68" style="fill:#407BFF"></polygon><polygon points="84.19 120.81 79.99 122.13 86.1 122.11 84.19 120.81" style="fill:#407BFF"></polygon><polygon points="92.47 122.08 86.1 122.11 88.04 123.41 92.47 122.08" style="fill:#407BFF"></polygon><path d="M117.8,120.67a.36.36,0,0,0,0-.1.62.62,0,0,0-.71-.61.76.76,0,0,0-.71.72s0,.07,0,.1a1.12,1.12,0,0,0-.68,1v.92l-7.46-.83a3.6,3.6,0,0,0,.32-.58l.35-.77a.05.05,0,0,0,0,0l.5-1.08a2.09,2.09,0,0,0,0-1.86l6-4.2v.59a1,1,0,0,0,.69,1l.42,2.68c.08.55.93.47,1-.09l.41-2.76a1.36,1.36,0,0,0,.7-1.13v-5.8a1,1,0,0,0-.81-1,.59.59,0,0,0,0-.13.71.71,0,0,0-.84-.69.93.93,0,0,0-.83.89.51.51,0,0,0,0,.13,1.39,1.39,0,0,0-.8,1.21l0,3.44-7.12,5a2.14,2.14,0,0,0-.92-.11l-13.13,1.25a1.89,1.89,0,0,0-.83.27l-6.28-3.33-.09-3.16a1,1,0,0,0-.69-.93s0-.07,0-.11a.63.63,0,0,0-.71-.64.78.78,0,0,0-.65.8.37.37,0,0,0,0,.11,1.24,1.24,0,0,0-.62,1.09l.16,5.17a1,1,0,0,0,.59.89l.41,2.42a.42.42,0,0,0,.84-.07l.26-2.49a1.19,1.19,0,0,0,.54-1v-.5l5.29,2.82a2,2,0,0,0,0,1.75l.48,1a0,0,0,0,0,0,0l.34.68,0,0a2.63,2.63,0,0,0,.2.33l.06.09,0,0-6.4,1.78,0-.83a.84.84,0,0,0-.58-.8v-.1a.56.56,0,0,0-.59-.56.63.63,0,0,0-.56.65.38.38,0,0,0,0,.1,1,1,0,0,0-.53.88l.14,4.35a.86.86,0,0,0,.5.77l.35,2a.36.36,0,0,0,.71,0l.22-2.09a.93.93,0,0,0,.46-.83l-.07-2.23L95,124l.22.09h0a3.47,3.47,0,0,0,.46.13h0a3.37,3.37,0,0,0,1,.08l.39,0a3.78,3.78,0,0,0,3.83,2.43,4.39,4.39,0,0,0,3.83-3l.41,0a3.82,3.82,0,0,0,1.29-.32,2.94,2.94,0,0,0,.53-.27l8.78,1v2.44a.94.94,0,0,0,.58.85l.35,2.25a.45.45,0,0,0,.87,0l.34-2.31a1.05,1.05,0,0,0,.59-.92v-4.85A.93.93,0,0,0,117.8,120.67Z" style="fill:#407BFF"></path><polygon points="109.68 119.61 117.11 119.53 114.82 118.12 109.68 119.61" style="fill:#407BFF"></polygon><polygon points="119.42 120.96 124.88 119.44 117.11 119.53 119.42 120.96" style="fill:#407BFF"></polygon><g style="opacity:0.6000000000000001"><polygon points="82.97 108.02 76.95 109.93 85.72 109.4 82.97 108.02" style="fill:#fff"></polygon><polygon points="95.03 108.84 85.72 109.4 88.52 110.8 95.03 108.84" style="fill:#fff"></polygon><polygon points="113.77 103.95 106.41 106.16 117.08 105.44 113.77 103.95" style="fill:#fff"></polygon><polygon points="128.48 104.68 117.08 105.44 120.44 106.96 128.48 104.68" style="fill:#fff"></polygon><polygon points="84.19 120.81 79.99 122.13 86.1 122.11 84.19 120.81" style="fill:#fff"></polygon><polygon points="92.47 122.08 86.1 122.11 88.04 123.41 92.47 122.08" style="fill:#fff"></polygon><path d="M117.8,120.67a.36.36,0,0,0,0-.1.62.62,0,0,0-.71-.61.76.76,0,0,0-.71.72s0,.07,0,.1a1.12,1.12,0,0,0-.68,1v.92l-7.46-.83a3.6,3.6,0,0,0,.32-.58l.35-.77a.05.05,0,0,0,0,0l.5-1.08a2.09,2.09,0,0,0,0-1.86l6-4.2v.59a1,1,0,0,0,.69,1l.42,2.68c.08.55.93.47,1-.09l.41-2.76a1.36,1.36,0,0,0,.7-1.13v-5.8a1,1,0,0,0-.81-1,.59.59,0,0,0,0-.13.71.71,0,0,0-.84-.69.93.93,0,0,0-.83.89.51.51,0,0,0,0,.13,1.39,1.39,0,0,0-.8,1.21l0,3.44-7.12,5a2.14,2.14,0,0,0-.92-.11l-13.13,1.25a1.89,1.89,0,0,0-.83.27l-6.28-3.33-.09-3.16a1,1,0,0,0-.69-.93s0-.07,0-.11a.63.63,0,0,0-.71-.64.78.78,0,0,0-.65.8.37.37,0,0,0,0,.11,1.24,1.24,0,0,0-.62,1.09l.16,5.17a1,1,0,0,0,.59.89l.41,2.42a.42.42,0,0,0,.84-.07l.26-2.49a1.19,1.19,0,0,0,.54-1v-.5l5.29,2.82a2,2,0,0,0,0,1.75l.48,1a0,0,0,0,0,0,0l.34.68,0,0a2.63,2.63,0,0,0,.2.33l.06.09,0,0-6.4,1.78,0-.83a.84.84,0,0,0-.58-.8v-.1a.56.56,0,0,0-.59-.56.63.63,0,0,0-.56.65.38.38,0,0,0,0,.1,1,1,0,0,0-.53.88l.14,4.35a.86.86,0,0,0,.5.77l.35,2a.36.36,0,0,0,.71,0l.22-2.09a.93.93,0,0,0,.46-.83l-.07-2.23L95,124l.22.09h0a3.47,3.47,0,0,0,.46.13h0a3.37,3.37,0,0,0,1,.08l.39,0a3.78,3.78,0,0,0,3.83,2.43,4.39,4.39,0,0,0,3.83-3l.41,0a3.82,3.82,0,0,0,1.29-.32,2.94,2.94,0,0,0,.53-.27l8.78,1v2.44a.94.94,0,0,0,.58.85l.35,2.25a.45.45,0,0,0,.87,0l.34-2.31a1.05,1.05,0,0,0,.59-.92v-4.85A.93.93,0,0,0,117.8,120.67Z" style="fill:#fff"></path><polygon points="109.68 119.61 117.11 119.53 114.82 118.12 109.68 119.61" style="fill:#fff"></polygon><polygon points="119.42 120.96 124.88 119.44 117.11 119.53 119.42 120.96" style="fill:#fff"></polygon></g></g><g id="freepik--drone-2--inject-294"><path d="M300.74,229a1.29,1.29,0,0,1-.64-.08l-27.49-11.32a1.09,1.09,0,0,1,.82-2L301,226.87a1.1,1.1,0,0,1,.61,1.49A1.19,1.19,0,0,1,300.74,229Z" style="fill:#263238"></path><path d="M276.18,235.69A1.1,1.1,0,0,1,275,235a1,1,0,0,1,.63-1.36l24.3-8.4a1.19,1.19,0,0,1,1.51.68,1.12,1.12,0,0,1-.73,1.44l-24.33,8.3Z" style="fill:#263238"></path><path d="M300.74,229a1.21,1.21,0,0,1-1.07-.39,1.09,1.09,0,0,1,.14-1.59l25.4-20.54a1.36,1.36,0,0,1,1.84.07,1.18,1.18,0,0,1-.2,1.73l-25.52,20.46A1.25,1.25,0,0,1,300.74,229Z" style="fill:#263238"></path><path d="M328.9,228.57h-.25l-28.39-1.17a1.14,1.14,0,0,1-1.12-1.18,1.19,1.19,0,0,1,1.24-1.08l28.45,1.06a1.19,1.19,0,0,1,1.21,1.24A1.29,1.29,0,0,1,328.9,228.57Z" style="fill:#263238"></path><path d="M274.39,221.79l-1,.17a1.78,1.78,0,0,1-2-1.47L269.94,212a1.83,1.83,0,0,1,1.45-2.09l1-.19a1.76,1.76,0,0,1,2.05,1.46l1.4,8.55A1.78,1.78,0,0,1,274.39,221.79Z" style="fill:#263238"></path><path d="M273,209.55a1.22,1.22,0,0,1-1,1.39,1.15,1.15,0,0,1-1.35-1,1.21,1.21,0,0,1,1-1.39A1.16,1.16,0,0,1,273,209.55Z" style="fill:#263238"></path><polygon points="271.52 207.59 266.73 207.18 256.58 209.92 271.52 207.59" style="fill:#263238"></polygon><polygon points="271.52 207.59 276.37 208 287.37 205.11 271.52 207.59" style="fill:#263238"></polygon><path d="M327.53,213.13l-1.23.2a2,2,0,0,1-2.38-1.6l-1.29-9.41a2.21,2.21,0,0,1,1.85-2.37l1.24-.23a2,2,0,0,1,2.41,1.58l1.28,9.52A2.16,2.16,0,0,1,327.53,213.13Z" style="fill:#263238"></path><path d="M326.51,199.51a1.47,1.47,0,0,1-1.24,1.57,1.31,1.31,0,0,1-1.59-1,1.47,1.47,0,0,1,1.23-1.58A1.3,1.3,0,0,1,326.51,199.51Z" style="fill:#263238"></path><polygon points="324.82 197.73 319.09 197.36 306.65 200.62 324.82 197.73" style="fill:#263238"></polygon><polygon points="324.82 197.73 330.65 198.11 344.23 194.65 324.82 197.73" style="fill:#263238"></polygon><path d="M277.4,240.4l-.87.11a1.57,1.57,0,0,1-1.72-1.29l-1.19-7.13a1.47,1.47,0,0,1,1.24-1.7l.86-.12a1.56,1.56,0,0,1,1.75,1.27l1.18,7.19A1.45,1.45,0,0,1,277.4,240.4Z" style="fill:#263238"></path><path d="M276.27,230.13a1,1,0,0,1-.83,1.14,1,1,0,0,1-1.15-.85,1,1,0,0,1,.83-1.13A1,1,0,0,1,276.27,230.13Z" style="fill:#263238"></path><polygon points="275.11 229.2 271.78 228.77 264.69 230.61 275.11 229.2" style="fill:#263238"></polygon><polygon points="275.11 229.2 278.47 229.64 285.97 227.73 275.11 229.2" style="fill:#263238"></polygon><path d="M330.23,233.77l-1.05.13a1.77,1.77,0,0,1-2-1.4l-1.08-7.9a1.76,1.76,0,0,1,1.58-1.91l1.06-.16a1.75,1.75,0,0,1,2,1.4l1.07,8A1.75,1.75,0,0,1,330.23,233.77Z" style="fill:#263238"></path><path d="M329.39,222.38a1.19,1.19,0,0,1-1.06,1.27,1.15,1.15,0,0,1-1.35-.92,1.18,1.18,0,0,1,1-1.27A1.15,1.15,0,0,1,329.39,222.38Z" style="fill:#263238"></path><polygon points="327.87 220.38 323.91 219.96 315.21 222.13 327.87 220.38" style="fill:#263238"></polygon><polygon points="327.87 220.38 331.88 220.82 341.12 218.55 327.87 220.38" style="fill:#263238"></polygon><path d="M308.22,229l-14.46,2a6.3,6.3,0,0,1-6.06-2.62l-1.8-2.63a3.4,3.4,0,0,1,2.33-5.26l22.38-3.6a3.53,3.53,0,0,1,4.13,4.49l-1.07,3.21A6.69,6.69,0,0,1,308.22,229Z" style="fill:#263238"></path><path d="M308.92,238.26a.74.74,0,0,0,.66-.66l.42-5.68a.68.68,0,0,0-.16-.51l-4.71-5.66a.72.72,0,1,0-1.1.92l4.52,5.44-.41,5.38a.72.72,0,0,0,.66.77Z" style="fill:#263238"></path><path d="M295.94,240.33a.41.41,0,0,0,.16,0,.72.72,0,0,0,.47-.9l-1.63-5.13,2.8-6.42a.73.73,0,0,0-.38-.95.72.72,0,0,0-.94.37l-2.91,6.67a.78.78,0,0,0,0,.5l1.71,5.39A.71.71,0,0,0,295.94,240.33Z" style="fill:#263238"></path><path d="M292.35,222.11c-.46-3.25,2.62-6.36,6.82-7s7.83,1.52,8.3,4.68-2.77,4.22-6.92,4.87S292.8,225.38,292.35,222.11Z" style="fill:#263238"></path><path d="M298.74,221.23a1.32,1.32,0,0,0,1.54,1.1,1.39,1.39,0,0,0,1.17-1.54,1.32,1.32,0,0,0-1.54-1.09A1.38,1.38,0,0,0,298.74,221.23Z" style="fill:#fff"></path><path d="M303.86,220.4a1.32,1.32,0,0,0,1.54,1.09,1.38,1.38,0,0,0,1.16-1.54,1.32,1.32,0,0,0-1.54-1.09A1.37,1.37,0,0,0,303.86,220.4Z" style="fill:#fff"></path><path d="M293.63,222.07a1.32,1.32,0,0,0,1.54,1.09,1.38,1.38,0,0,0,1.16-1.53,1.32,1.32,0,0,0-1.54-1.1A1.38,1.38,0,0,0,293.63,222.07Z" style="fill:#fff"></path></g><g id="freepik--drone-3--inject-294"><path d="M370.63,146.26a1.94,1.94,0,0,0,1.07-.22L416,122.38a1.92,1.92,0,0,0,.68-2.62,1.9,1.9,0,0,0-2.54-.91l-44.55,23.59a1.94,1.94,0,0,0-.71,2.73A2.2,2.2,0,0,0,370.63,146.26Z" style="fill:#407BFF"></path><path d="M414.06,155.18a1.78,1.78,0,0,0,1.85-1.42,2,2,0,0,0-1.38-2.35l-43.4-12.08a1.91,1.91,0,0,0-2.42,1.41,2.17,2.17,0,0,0,1.58,2.5l43.41,11.88Z" style="fill:#407BFF"></path><path d="M370.63,146.26a1.91,1.91,0,0,0,1.74-.83,2.07,2.07,0,0,0-.61-2.82l-48-33.7a2.1,2.1,0,1,0-2.4,3.42l48.22,33.55A2.17,2.17,0,0,0,370.63,146.26Z" style="fill:#407BFF"></path><path d="M322.47,148.89a2.06,2.06,0,0,0,.43,0l48.17-5.58a1.88,1.88,0,0,0,1.64-2.24,2.2,2.2,0,0,0-2.36-1.79l-48.3,5.39a2,2,0,0,0-1.79,2.37A2.43,2.43,0,0,0,322.47,148.89Z" style="fill:#407BFF"></path><path d="M413.93,130.06l1.76.17a2.87,2.87,0,0,0,3.12-2.88l.48-15.37a3.49,3.49,0,0,0-2.93-3.57l-1.77-.22a2.85,2.85,0,0,0-3.17,2.86L411,126.56A3.43,3.43,0,0,0,413.93,130.06Z" style="fill:#407BFF"></path><path d="M413.36,137l-1.1-10.43a1.2,1.2,0,0,1,1.3-1.38l2.8.29a1.4,1.4,0,0,1,1.19,1.62l-1.71,10.12A1.25,1.25,0,0,1,413.36,137Z" style="fill:#407BFF"></path><path d="M413.45,107.94a2.34,2.34,0,0,0,2,2.38,1.86,1.86,0,0,0,2.08-1.88,2.31,2.31,0,0,0-1.95-2.38A1.87,1.87,0,0,0,413.45,107.94Z" style="fill:#407BFF"></path><polygon points="415.58 104.69 423.77 100.58 441.63 106.26 415.58 104.69" style="fill:#407BFF"></polygon><polygon points="415.58 104.69 407.27 108.85 387.93 103.01 415.58 104.69" style="fill:#407BFF"></polygon><path d="M321.28,121.06l2.15.21a3.24,3.24,0,0,0,3.7-3.16l.05-17a4.22,4.22,0,0,0-3.7-4l-2.16-.26a3.2,3.2,0,0,0-3.76,3.13v17.21A4.12,4.12,0,0,0,321.28,121.06Z" style="fill:#407BFF"></path><path d="M320.83,128.72l-1.71-11.59a1.33,1.33,0,0,1,1.53-1.51l3.42.35a1.67,1.67,0,0,1,1.51,1.81L323.85,129C323.6,130.62,321.08,130.4,320.83,128.72Z" style="fill:#407BFF"></path><path d="M319.92,96.52a2.8,2.8,0,0,0,2.48,2.66,2.1,2.1,0,0,0,2.47-2.06,2.81,2.81,0,0,0-2.47-2.67A2.1,2.1,0,0,0,319.92,96.52Z" style="fill:#407BFF"></path><polygon points="322.41 92.93 332.23 88.5 354.1 95.04 322.41 92.93" style="fill:#407BFF"></polygon><polygon points="322.41 92.93 312.41 97.44 288.54 90.67 322.41 92.93" style="fill:#407BFF"></polygon><path d="M413.05,163.77l1.49.09a2.55,2.55,0,0,0,2.66-2.52l.4-12.92a2.81,2.81,0,0,0-2.5-2.9l-1.5-.12a2.53,2.53,0,0,0-2.69,2.51l-.38,13A2.76,2.76,0,0,0,413.05,163.77Z" style="fill:#407BFF"></path><path d="M412.57,169.59l-.94-8.73a1.06,1.06,0,0,1,1.1-1.19l2.38.15a1.12,1.12,0,0,1,1,1.32l-1.45,8.56A1.06,1.06,0,0,1,412.57,169.59Z" style="fill:#407BFF"></path><path d="M412.63,145.24a1.86,1.86,0,0,0,1.67,1.92,1.65,1.65,0,0,0,1.77-1.65,1.87,1.87,0,0,0-1.66-1.93A1.66,1.66,0,0,0,412.63,145.24Z" style="fill:#407BFF"></path><polygon points="414.44 142.43 420.13 138.59 432.6 142.5 414.44 142.43" style="fill:#407BFF"></polygon><polygon points="414.44 142.43 408.69 146.31 395.52 142.37 414.44 142.43" style="fill:#407BFF"></polygon><path d="M321.37,158.38l1.83.1a2.85,2.85,0,0,0,3.14-2.76l0-14.29a3.38,3.38,0,0,0-3.14-3.23l-1.83-.14a2.83,2.83,0,0,0-3.19,2.75v14.41A3.33,3.33,0,0,0,321.37,158.38Z" style="fill:#407BFF"></path><path d="M321,164.82l-1.44-9.66a1.17,1.17,0,0,1,1.29-1.32l2.91.18a1.33,1.33,0,0,1,1.27,1.47L323.56,165A1.32,1.32,0,0,1,321,164.82Z" style="fill:#407BFF"></path><path d="M320.22,137.86a2.25,2.25,0,0,0,2.1,2.15,1.87,1.87,0,0,0,2.1-1.81,2.25,2.25,0,0,0-2.09-2.15A1.87,1.87,0,0,0,320.22,137.86Z" style="fill:#407BFF"></path><polygon points="322.33 134.78 329.12 130.58 344.39 135.01 322.33 134.78" style="fill:#407BFF"></polygon><polygon points="322.33 134.78 315.46 139.02 299.25 134.52 322.33 134.78" style="fill:#407BFF"></polygon><path d="M357.86,147.19,383,149a10,10,0,0,0,9.74-5.44l2.48-4.94a6.46,6.46,0,0,0-5.18-9.13l-39-3.72a5.93,5.93,0,0,0-6,8.56l2.57,5.62A12.42,12.42,0,0,0,357.86,147.19Z" style="fill:#407BFF"></path><path d="M351,131.8l38.94,3.46a6,6,0,0,1,1.41.29,4.39,4.39,0,0,1,2.44,6l-1,2A10,10,0,0,1,383,149l-25.15-1.84a12.42,12.42,0,0,1-10.28-7.2l-1.05-2.28a4,4,0,0,1,2.9-5.87A6.56,6.56,0,0,1,351,131.8Z" style="opacity:0.2"></path><path d="M358.45,143.3a12.94,12.94,0,0,0,12,12.86,11.17,11.17,0,0,0,12.09-11c.14-6.54-5.14-8.07-11.76-8.63S358.54,136.58,358.45,143.3Z" style="fill:#407BFF"></path><path d="M376.42,147.6a5.69,5.69,0,0,1-6.12,5.78,6.71,6.71,0,0,1-6.12-6.62A5.68,5.68,0,0,1,370.3,141,6.7,6.7,0,0,1,376.42,147.6Z" style="fill:#fff"></path><path d="M370.45,151.06a3.34,3.34,0,0,0,2.57-.88,3.48,3.48,0,0,0,1.07-2.58,4.4,4.4,0,0,0-3.95-4.3,3.33,3.33,0,0,0-2.56.88,3.44,3.44,0,0,0-1.08,2.58A4.41,4.41,0,0,0,370.45,151.06Z" style="fill:#407BFF"></path></g></svg>